ModelForces
version=1
nRows=4
nColumns=155
inDegrees=no

This file contains the forces exerted on a model during a simulation.

A force is a generalized force, meaning that it can be either a force (N) or a torque (Nm).

Units are S.I. units (second, meters, Newtons, ...)
Angles are in degrees.

endheader
time	glut_med1_r	glut_med2_r	glut_med3_r	glut_min1_r	glut_min2_r	glut_min3_r	semimem_r	semiten_r	bifemlh_r	bifemsh_r	sar_r	add_long_r	add_brev_r	add_mag1_r	add_mag2_r	add_mag3_r	tfl_r	pect_r	grac_r	glut_max1_r	glut_max2_r	glut_max3_r	iliacus_r	psoas_r	quad_fem_r	gem_r	peri_r	rect_fem_r	vas_med_r	vas_int_r	vas_lat_r	med_gas_r	lat_gas_r	soleus_r	tib_post_r	flex_dig_r	flex_hal_r	tib_ant_r	per_brev_r	per_long_r	per_tert_r	ext_dig_r	ext_hal_r	glut_med1_l	glut_med2_l	glut_med3_l	glut_min1_l	glut_min2_l	glut_min3_l	semimem_l	semiten_l	bifemlh_l	bifemsh_l	sar_l	add_long_l	add_brev_l	add_mag1_l	add_mag2_l	add_mag3_l	tfl_l	pect_l	grac_l	glut_max1_l	glut_max2_l	glut_max3_l	iliacus_l	psoas_l	quad_fem_l	gem_l	peri_l	rect_fem_l	vas_med_l	vas_int_l	vas_lat_l	med_gas_l	lat_gas_l	soleus_l	tib_post_l	flex_dig_l	flex_hal_l	tib_ant_l	per_brev_l	per_long_l	per_tert_l	ext_dig_l	ext_hal_l	ercspn_r	ercspn_l	intobl_r	intobl_l	extobl_r	extobl_l	femur_lat_meniscii_r.femur_lat_r.force.X	femur_lat_meniscii_r.femur_lat_r.force.Y	femur_lat_meniscii_r.femur_lat_r.force.Z	femur_lat_meniscii_r.femur_lat_r.torque.X	femur_lat_meniscii_r.femur_lat_r.torque.Y	femur_lat_meniscii_r.femur_lat_r.torque.Z	femur_lat_meniscii_r.meniscus_lat_r.force.X	femur_lat_meniscii_r.meniscus_lat_r.force.Y	femur_lat_meniscii_r.meniscus_lat_r.force.Z	femur_lat_meniscii_r.meniscus_lat_r.torque.X	femur_lat_meniscii_r.meniscus_lat_r.torque.Y	femur_lat_meniscii_r.meniscus_lat_r.torque.Z	femur_med_meniscii_r.femur_med_r.force.X	femur_med_meniscii_r.femur_med_r.force.Y	femur_med_meniscii_r.femur_med_r.force.Z	femur_med_meniscii_r.femur_med_r.torque.X	femur_med_meniscii_r.femur_med_r.torque.Y	femur_med_meniscii_r.femur_med_r.torque.Z	femur_med_meniscii_r.meniscus_med_r.force.X	femur_med_meniscii_r.meniscus_med_r.force.Y	femur_med_meniscii_r.meniscus_med_r.force.Z	femur_med_meniscii_r.meniscus_med_r.torque.X	femur_med_meniscii_r.meniscus_med_r.torque.Y	femur_med_meniscii_r.meniscus_med_r.torque.Z	femur_med_tibia_r.tibia_upper_r.force.X	femur_med_tibia_r.tibia_upper_r.force.Y	femur_med_tibia_r.tibia_upper_r.force.Z	femur_med_tibia_r.tibia_upper_r.torque.X	femur_med_tibia_r.tibia_upper_r.torque.Y	femur_med_tibia_r.tibia_upper_r.torque.Z	femur_med_tibia_r.femur_med_r.force.X	femur_med_tibia_r.femur_med_r.force.Y	femur_med_tibia_r.femur_med_r.force.Z	femur_med_tibia_r.femur_med_r.torque.X	femur_med_tibia_r.femur_med_r.torque.Y	femur_med_tibia_r.femur_med_r.torque.Z	femur_lat_tibia_r.tibia_upper_r.force.X	femur_lat_tibia_r.tibia_upper_r.force.Y	femur_lat_tibia_r.tibia_upper_r.force.Z	femur_lat_tibia_r.tibia_upper_r.torque.X	femur_lat_tibia_r.tibia_upper_r.torque.Y	femur_lat_tibia_r.tibia_upper_r.torque.Z	femur_lat_tibia_r.femur_lat_r.force.X	femur_lat_tibia_r.femur_lat_r.force.Y	femur_lat_tibia_r.femur_lat_r.force.Z	femur_lat_tibia_r.femur_lat_r.torque.X	femur_lat_tibia_r.femur_lat_r.torque.Y	femur_lat_tibia_r.femur_lat_r.torque.Z	aACL_R	pACL_R	aPCL_R	pPCL_R	aMCL_R	mMCL_R	pMCL_R	aLCL_R	mLCL_R	pLCL_R	aPCL_L	pPCL_L	aMCL_L	aLCL_L
      0.16216980	     11.54627258	      8.43071832	      9.06874430	      3.89096501	      4.52016837	      4.90035883	      0.00000000	    168.46856149	    127.88349654	    281.92083053	    132.20363536	      8.39168193	      6.03854374	      2.28533583	      3.67700078	      6.20271548	      5.04780736	      3.28451998	    101.87357242	      5.44381475	      8.28162048	      6.22449212	     27.70399120	     18.70803933	      5.35162378	      3.68186466	      6.26570113	     52.16907296	     31.20535488	     33.24528406	     44.73180446	      0.00000000	      0.00000000	      0.00000000	      0.00000000	      0.00000000	      0.00000000	     35.69864746	      1.39246159	      1.52543720	     19.35586116	     39.29931462	     10.48980656	     11.54627258	      8.43071832	      9.06874430	      3.89096501	      4.52016837	      4.90035883	      0.00000000	      6.25154517	     12.33821776	     10.65183848	      2.21999371	      8.39168193	      6.03854374	      2.28533583	      3.67700078	      6.20271548	      5.46714001	      3.28451998	      2.29213423	      5.44381475	      8.28162048	      6.22449212	     27.70399120	     18.70803933	      5.35162378	      3.68186466	      6.26570113	     17.20576851	      0.00000000	      0.00000000	      0.00000000	     21.22369200	     10.03566837	     51.25372700	     51.22101188	      5.50267677	      4.92310715	     13.37976127	      7.16185758	     18.33326453	      2.89242877	      8.93739362	      2.80634494	     36.62524210	     36.62524210	     13.61924657	     13.61924657	     30.96968096	     30.96968096	     40.56951074	     97.89765648	     15.96209243	     -8.83614557	      1.00486487	     15.62725013	    -40.56951074	    -97.89765648	    -15.96209243	      2.81615509	     -1.38549198	      2.00769163	      8.19673672	      9.85117698	      7.72396602	     -2.90831646	     -0.19678088	      3.32426733	     -8.19673672	     -9.85117698	     -7.72396602	     -0.05784235	      0.02878592	      0.03770641	   -768.89422574	   -729.64675368	    233.56014495	    -16.78666280	     17.18437808	     -1.68340997	    768.89422574	    729.64675368	   -233.56014495	    107.93317784	    -13.54392894	    313.11612904	    -28.66402350	    -37.80217736	    -12.94813785	      1.25215087	     -1.03032842	      0.23747198	     28.66402350	     37.80217736	     12.94813785	     -6.19435892	      0.72758116	     11.58724559	    -11.11213944	      0.00000000	    544.45377194	    369.57211850	      0.00000000	      0.00000000	      0.00000000	      0.00000000	      0.00000000	      0.00000000	      0.00000000	      0.00000000	      0.00000001	      0.00000000
      0.16238077	     11.53590992	      8.42302787	      9.06037317	      3.88756068	      4.51644219	      4.89560234	      0.00000000	    168.59389434	    127.67881846	    281.63288016	    132.25845445	      8.38393932	      6.03330956	      2.45074023	      3.67358638	      6.19652919	      5.04688145	      3.28162567	    101.91651484	      5.43882852	      8.27401812	      6.21869029	     27.68981189	     18.69186792	      5.34683972	      3.67952519	      6.26366923	     52.33682685	     31.20678457	     33.24188703	     44.71678794	      0.00000000	      0.00000000	      0.00000000	      0.00000000	      0.00000000	      0.00000000	     35.73913661	      1.40232323	      1.54130880	     20.41982064	     39.43949891	     10.52686641	     11.53590992	      8.42302787	      9.06037317	      3.88756068	      4.51644219	      4.89560234	      0.00000000	      6.24548469	     12.32665627	     10.64230522	      2.21806043	      8.38393932	      6.03330956	      2.45074023	      3.67358638	      6.19652919	      5.46333034	      3.28162567	      2.29010308	      5.43882852	      8.27401812	      6.21869029	     27.68981189	     18.69186792	      5.34683972	      3.67952519	      6.26366923	     17.18793630	      0.00000000	      0.00000000	      0.00000000	     21.21920623	     10.03278721	     51.21211448	     51.19854936	      5.49806738	      4.91899097	     13.36673237	      7.15446439	     18.31958028	      2.88993782	      8.92728444	      2.80326082	     36.59312567	     36.59312567	     13.60634869	     13.60634869	     30.95798185	     30.95798185	     40.27789215	     97.97636529	     15.86111677	     -8.79881701	      0.99545989	     15.50125522	    -40.27789215	    -97.97636529	    -15.86111677	      2.81744078	     -1.37425790	      2.02780548	      8.29394533	      9.79878590	      7.70029537	     -2.89954427	     -0.19908263	      3.36287219	     -8.29394533	     -9.79878590	     -7.70029537	     -0.05778150	      0.03112552	      0.03617586	   -773.40224770	   -731.04300334	    233.69998148	    -16.81127025	     17.28358642	     -1.67633853	    773.40224770	    731.04300334	   -233.69998148	    108.02066991	    -13.63757827	    314.92815391	    -27.96425588	    -36.78932746	    -12.59109140	      1.21744916	     -1.00497388	      0.23396575	     27.96425588	     36.78932746	     12.59109140	     -6.02369993	      0.70994828	     11.30252582	    -11.07053314	      0.00000000	    547.11864648	    370.89790521	      0.00000000	      0.00000000	      0.00000000	      0.00000000	      0.00000000	      0.00000000	      0.00000000	      0.00000000	      0.00000001	      0.00000000
      0.16326314	     11.49273090	      8.39109941	      9.02561942	      3.87342589	      4.50097208	      4.87585238	      0.00000000	    169.12155752	    126.86284843	    280.72868237	    132.50104579	      8.35179498	      6.01157683	      2.97577492	      3.65941077	      6.17084507	      5.04313775	      3.26960873	    102.10543565	      5.41812795	      8.24245655	      6.19460394	     27.63095012	     18.62473744	      5.32697716	      3.66981413	      6.25496099	     52.96656970	     30.98701440	     33.06748856	     44.52730318	      0.00000000	      0.00000000	      0.00000000	      0.00000000	      0.00000000	      0.00000000	     35.89470010	      1.44576733	      1.61135559	     27.94146929	     39.86928335	     10.60451800	     11.49273090	      8.39109941	      9.02561942	      3.87342589	      4.50097208	      4.87585238	      0.00000000	      6.22032433	     12.27849616	     10.60272500	      2.21003337	      8.35179498	      6.01157683	      2.97577492	      3.65941077	      6.17084507	      5.44751152	      3.26960873	      2.28166995	      5.41812795	      8.24245655	      6.19460394	     27.63095012	     18.62473744	      5.32697716	      3.66981413	      6.25496099	     17.11386937	      0.00000000	      0.00000000	      0.00000000	     21.19982372	     10.02046393	     51.03812903	     51.10509531	      5.47865929	      4.90158741	     13.31254465	      7.12372925	     18.26256423	      2.87959720	      8.88587620	      2.79068969	     36.45977885	     36.45977885	     13.55280240	     13.55280240	     30.90941734	     30.90941734	     40.01264457	     97.37615657	     14.91536908	     -8.39780785	      0.98153877	     15.38253100	    -40.01264457	    -97.37615657	    -14.91536908	      2.77884778	     -1.34329873	      2.05292405	      8.27248752	      9.27114569	      7.56479309	     -2.85725359	     -0.19642138	      3.35000601	     -8.27248752	     -9.27114569	     -7.56479309	     -0.04945651	      0.02998811	      0.03260471	   -792.01414812	   -732.81378055	    235.69641119	    -16.89707644	     17.73924638	     -1.74368325	    792.01414812	    732.81378055	   -235.69641119	    108.91011142	    -14.04211229	    322.43136765	    -25.43054324	    -32.90222808	    -11.11267025	      1.08155263	     -0.90802493	      0.21429050	     25.43054324	     32.90222808	     11.11267025	     -5.32416481	      0.64470774	     10.27424666	    -10.66285054	      0.00000000	    558.19051532	    376.32294277	      0.00000000	      0.00000000	      0.00000000	      0.00000000	      0.00000000	      0.00000000	      0.00000000	      0.00000000	      0.00000001	      0.00000000
      0.16343288	     11.48445541	      8.38500081	      9.01898128	      3.87072584	      4.49801714	      4.87207954	      0.00000000	    169.22382805	    126.71457841	    280.59824046	    132.54947965	      8.34565526	      6.00742533	      3.05367496	      3.65670311	      6.16593910	      5.04243786	      3.26731328	    102.14307912	      5.41417411	      8.23642824	      6.19000346	     27.61970822	     18.61191650	      5.32318313	      3.66795955	      6.25324755	     53.15537296	     31.13772740	     33.16771633	     44.59678041	      0.00000000	      0.00000000	      0.00000000	      0.00000000	      0.00000000	      0.00000000	     35.92962610	      1.45455903	      1.62552658	     22.47728933	     40.08278851	     10.68616160	     11.48445541	      8.38500081	      9.01898128	      3.87072584	      4.49801714	      4.87207954	      0.00000000	      6.21551866	     12.26926813	     10.59516468	      2.20850001	      8.34565526	      6.00742533	      3.05367496	      3.65670311	      6.16593910	      5.44448960	      3.26731328	      2.28005908	      5.41417411	      8.23642824	      6.19000346	     27.61970822	     18.61191650	      5.32318313	      3.66795955	      6.25324755	     17.09971600	      0.00000000	      0.00000000	      0.00000000	     21.19598129	     10.01804337	     51.00467333	     51.08720911	      5.47490097	      4.89820381	     13.30217709	      7.11785117	     18.25163666	      2.87762226	      8.87807101	      2.78833159	     36.43430685	     36.43430685	     13.54257496	     13.54257496	     30.90014235	     30.90014235	     39.75178634	     97.44439448	     14.93058637	     -8.40831110	      0.97474151	     15.27029947	    -39.75178634	    -97.44439448	    -14.93058637	      2.78327880	     -1.33693750	      2.06988023	      8.34971015	      9.23443222	      7.55324526	     -2.85339259	     -0.19810054	      3.38061279	     -8.34971015	     -9.23443222	     -7.55324526	     -0.04908863	      0.03155155	      0.03154468	   -795.35495446	   -733.14045559	    235.70335570	    -16.90152106	     17.81240223	     -1.74832300	    795.35495446	    733.14045559	   -235.70335570	    108.92388486	    -14.11300670	    323.77436828	    -24.86697252	    -32.14980102	    -10.84985612	      1.05599873	     -0.88817936	      0.21224090	     24.86697252	     32.14980102	     10.84985612	     -5.19847745	      0.63067913	     10.04499056	    -10.58787622	      0.00000000	    560.31706464	    377.37561060	      0.00000000	      0.00000000	      0.00000000	      0.00000000	      0.00000000	      0.00000000	      0.00000000	      0.00000000	      0.00000001	      0.00000000
